<svg width="46" height="45" viewBox="0 0 46 45" fill="none" xmlns="http://www.w3.org/2000/svg">
<rect x="6" width="21" height="11" fill="#0678BF"/>
<rect x="4" y="18" width="23" height="10" fill="#F2C12E"/>
<rect y="29" width="25" height="5" fill="#F28729"/>
<rect x="3" y="35" width="24" height="10" fill="#F23827"/>
<rect x="1" y="12" width="24" height="5" fill="#5BB84D"/>
<path d="M41.5665 23.7945C43.0843 25.7671 44.2026 27.411 44.9216 28.726C45.6405 30 46 31.5 46 33.226C46 33.9247 45.9401 34.6849 45.8203 35.5069C45.1812 39.1644 43.5236 41.6712 40.8476 43.0274C38.1715 44.3425 32.1939 45 28 45V35.493C29.4379 35.5341 31.6011 35.4452 32.3999 35.3219C33.2387 35.1575 33.9377 34.726 34.4969 34.0274C34.7765 33.6164 34.9163 32.9384 34.9163 31.9932C34.9163 31.2945 34.7964 30.5343 34.5568 29.7123V29.774C34.3571 29.3219 34.0775 28.911 33.718 28.5411C33.3585 28.1712 33.1077 28.0922 32.8 27.8873C32.4923 27.6825 31.9 27.2535 30.4 27.2535C28.9 27.2535 29.5456 27.2535 29.2 27.2535C28.8544 27.2535 28.1598 27.2946 28 27.2535V18.3699H30.7823C32.5397 18.3699 33.738 17.7534 34.377 16.5205C34.8963 15.5342 35.1559 14.7329 35.1559 14.1164C35.1559 13.7466 35.076 13.3973 34.9163 13.0685C34.3171 11.9178 33.5582 11.2192 32.6396 10.9726C32.0005 10.8904 31.5013 10.8493 31.1418 10.8493C30.1033 10.7671 29.1192 10.7652 28.6 10.6419V0C33.1134 0 37.133 1.0274 40.0088 3.08219C42.9245 5.09589 44.3824 8.42466 44.3824 13.0685C44.3824 16.0685 43.3639 19.3356 41.3269 22.8699V22.8082C41.247 22.9726 41.207 23.0959 41.207 23.1781C41.207 23.3014 41.3269 23.4863 41.5665 23.7329V23.7945Z" fill="#F4F4F4"/>
</svg>
